<svg width="16" height="17" viewBox="0 0 16 17" fill="none" xmlns="http://www.w3.org/2000/svg">
    <path
        d="M9.61992 13.0466C9.49325 13.0466 9.36658 13 9.26658 12.9C9.07325 12.7066 9.07325 12.3866 9.26658 12.1933L12.9599 8.49996L9.26658 4.80662C9.07325 4.61329 9.07325 4.29329 9.26658 4.09996C9.45992 3.90662 9.77992 3.90662 9.97325 4.09996L14.0199 8.14662C14.2132 8.33996 14.2132 8.65996 14.0199 8.85329L9.97325 12.9C9.87325 13 9.74658 13.0466 9.61992 13.0466Z"
        fill="#30B0C7" />
    <path
        d="M13.5533 9H2.33325C2.05992 9 1.83325 8.77333 1.83325 8.5C1.83325 8.22667 2.05992 8 2.33325 8H13.5533C13.8266 8 14.0533 8.22667 14.0533 8.5C14.0533 8.77333 13.8266 9 13.5533 9Z"
        fill="#30B0C7" />
</svg>
