<svg width="16" height="16" viewBox="0 0 16 16" fill="none" xmlns="http://www.w3.org/2000/svg">
    <path
        d="M5.33398 3.83337C5.06065 3.83337 4.83398 3.60671 4.83398 3.33337V1.33337C4.83398 1.06004 5.06065 0.833374 5.33398 0.833374C5.60732 0.833374 5.83398 1.06004 5.83398 1.33337V3.33337C5.83398 3.60671 5.60732 3.83337 5.33398 3.83337Z"
        fill="currentColor" />
    <path
        d="M10.666 3.83337C10.3927 3.83337 10.166 3.60671 10.166 3.33337V1.33337C10.166 1.06004 10.3927 0.833374 10.666 0.833374C10.9393 0.833374 11.166 1.06004 11.166 1.33337V3.33337C11.166 3.60671 10.9393 3.83337 10.666 3.83337Z"
        fill="currentColor" />
    <path
        d="M5.66667 9.66668C5.58 9.66668 5.49333 9.64669 5.41333 9.61336C5.32666 9.58002 5.26001 9.53334 5.19334 9.47334C5.07334 9.34667 5 9.17335 5 9.00001C5 8.82668 5.07334 8.65335 5.19334 8.52668C5.26001 8.46668 5.33333 8.42 5.41333 8.38667C5.57333 8.32 5.76 8.32 5.92 8.38667C6 8.42 6.07333 8.46668 6.13999 8.52668C6.16666 8.56002 6.19999 8.59335 6.21999 8.62668C6.24666 8.66668 6.26668 8.70668 6.28001 8.74668C6.30001 8.78668 6.31334 8.82667 6.32001 8.86667C6.32667 8.91334 6.33333 8.96001 6.33333 9.00001C6.33333 9.17335 6.25999 9.34667 6.13999 9.47334C6.07333 9.53334 6 9.58002 5.92 9.61336C5.84 9.64669 5.75333 9.66668 5.66667 9.66668Z"
        fill="currentColor" />
    <path
        d="M8.00065 9.66667C7.91398 9.66667 7.82731 9.64668 7.74731 9.61334C7.66065 9.58001 7.59399 9.53333 7.52732 9.47333C7.40732 9.34666 7.33398 9.17334 7.33398 9C7.33398 8.96 7.34064 8.91333 7.34731 8.86666C7.35398 8.82666 7.36731 8.78667 7.38731 8.74667C7.40064 8.70667 7.42066 8.66667 7.44733 8.62667C7.47399 8.59334 7.50066 8.56001 7.52732 8.52667C7.77399 8.28001 8.22065 8.28001 8.47398 8.52667C8.50065 8.56001 8.52731 8.59334 8.55398 8.62667C8.58064 8.66667 8.60066 8.70667 8.61399 8.74667C8.63399 8.78667 8.64733 8.82666 8.65399 8.86666C8.66066 8.91333 8.66732 8.96 8.66732 9C8.66732 9.17334 8.59398 9.34666 8.47398 9.47333C8.34731 9.59333 8.18065 9.66667 8.00065 9.66667Z"
        fill="currentColor" />
    <path
        d="M5.66667 12.0001C5.58 12.0001 5.49333 11.9801 5.41333 11.9467C5.33333 11.9134 5.26001 11.8667 5.19334 11.8067C5.07334 11.68 5 11.5067 5 11.3334C5 11.2934 5.00666 11.2467 5.01333 11.2067C5.01999 11.1601 5.03332 11.12 5.05332 11.08C5.06666 11.04 5.08668 11.0001 5.11334 10.9601C5.13334 10.9267 5.16667 10.8934 5.19334 10.8601C5.26001 10.8001 5.33333 10.7534 5.41333 10.72C5.57333 10.6534 5.76 10.6534 5.92 10.72C6 10.7534 6.07333 10.8001 6.13999 10.8601C6.16666 10.8934 6.19999 10.9267 6.21999 10.9601C6.24666 11.0001 6.26668 11.04 6.28001 11.08C6.30001 11.12 6.31334 11.1601 6.32001 11.2067C6.32667 11.2467 6.33333 11.2934 6.33333 11.3334C6.33333 11.5067 6.25999 11.68 6.13999 11.8067C6.07333 11.8667 6 11.9134 5.92 11.9467C5.84 11.9801 5.75333 12.0001 5.66667 12.0001Z"
        fill="currentColor" />
    <path
        d="M13.6673 6.55994H2.33398C2.06065 6.55994 1.83398 6.33327 1.83398 6.05994C1.83398 5.7866 2.06065 5.55994 2.33398 5.55994H13.6673C13.9407 5.55994 14.1673 5.7866 14.1673 6.05994C14.1673 6.33327 13.9407 6.55994 13.6673 6.55994Z"
        fill="currentColor" />
    <path
        d="M10.547 15.1867C10.2937 15.1867 10.0537 15.0934 9.88036 14.92C9.6737 14.7134 9.58036 14.4134 9.62703 14.1L9.7537 13.2C9.78703 12.9667 9.92704 12.6867 10.0937 12.52L12.4537 10.16C12.7737 9.84002 13.087 9.67336 13.427 9.64002C13.847 9.60002 14.2537 9.77336 14.6404 10.16C15.047 10.5667 15.5937 11.3934 14.6404 12.3467L12.2804 14.7067C12.1137 14.8734 11.8337 15.0134 11.6004 15.0467L10.7004 15.1734C10.647 15.18 10.6004 15.1867 10.547 15.1867ZM13.5404 10.6334C13.5337 10.6334 13.527 10.6334 13.5204 10.6334C13.427 10.64 13.3004 10.7267 13.1604 10.8667L10.8004 13.2267C10.7804 13.2467 10.747 13.3134 10.747 13.34L10.627 14.1734L11.4604 14.0534C11.487 14.0467 11.5537 14.0134 11.5737 13.9934L13.9337 11.6334C14.227 11.34 14.267 11.1934 13.9337 10.86C13.827 10.76 13.6737 10.6334 13.5404 10.6334Z"
        fill="currentColor" />
    <path
        d="M13.9471 12.8332C13.9004 12.8332 13.8537 12.8266 13.8137 12.8132C12.9337 12.5666 12.2337 11.8666 11.9871 10.9866C11.9137 10.7199 12.067 10.4466 12.3337 10.3666C12.6004 10.2932 12.8737 10.4466 12.9537 10.7133C13.107 11.2599 13.5404 11.6932 14.0871 11.8466C14.3537 11.9199 14.507 12.1999 14.4337 12.4666C14.367 12.6866 14.1671 12.8332 13.9471 12.8332Z"
        fill="currentColor" />
    <path
        d="M8 15.1667H5.33333C2.9 15.1667 1.5 13.7667 1.5 11.3334V5.66671C1.5 3.23337 2.9 1.83337 5.33333 1.83337H10.6667C13.1 1.83337 14.5 3.23337 14.5 5.66671V8.00004C14.5 8.27337 14.2733 8.50004 14 8.50004C13.7267 8.50004 13.5 8.27337 13.5 8.00004V5.66671C13.5 3.76004 12.5733 2.83337 10.6667 2.83337H5.33333C3.42667 2.83337 2.5 3.76004 2.5 5.66671V11.3334C2.5 13.24 3.42667 14.1667 5.33333 14.1667H8C8.27333 14.1667 8.5 14.3934 8.5 14.6667C8.5 14.94 8.27333 15.1667 8 15.1667Z"
        fill="currentColor" />
</svg>
