<svg width="16" height="16" viewBox="0 0 16 16" fill="none" xmlns="http://www.w3.org/2000/svg">
    <path
        d="M8.00065 15.1667C4.04732 15.1667 0.833984 11.9534 0.833984 8.00004C0.833984 4.04671 4.04732 0.833374 8.00065 0.833374C8.27398 0.833374 8.50065 1.06004 8.50065 1.33337C8.50065 1.60671 8.27398 1.83337 8.00065 1.83337C4.60065 1.83337 1.83398 4.60004 1.83398 8.00004C1.83398 11.4 4.60065 14.1667 8.00065 14.1667C11.4007 14.1667 14.1673 11.4 14.1673 8.00004C14.1673 7.72671 14.394 7.50004 14.6673 7.50004C14.9407 7.50004 15.1673 7.72671 15.1673 8.00004C15.1673 11.9534 11.954 15.1667 8.00065 15.1667Z"
        fill="currentColor" />
    <path
        d="M8.6663 7.83329C8.53964 7.83329 8.41297 7.78662 8.31297 7.68662C8.11964 7.49329 8.11964 7.17329 8.31297 6.97995L13.7796 1.51329C13.973 1.31995 14.293 1.31995 14.4863 1.51329C14.6796 1.70662 14.6796 2.02662 14.4863 2.21995L9.01964 7.68662C8.91964 7.78662 8.79297 7.83329 8.6663 7.83329Z"
        fill="currentColor" />
    <path
        d="M14.6673 5.05337C14.3939 5.05337 14.1673 4.82671 14.1673 4.55337V1.83337H11.4473C11.1739 1.83337 10.9473 1.60671 10.9473 1.33337C10.9473 1.06004 11.1739 0.833374 11.4473 0.833374H14.6673C14.9406 0.833374 15.1673 1.06004 15.1673 1.33337V4.55337C15.1673 4.82671 14.9406 5.05337 14.6673 5.05337Z"
        fill="currentColor" />
</svg>
