<svg width="18" height="19" viewBox="0 0 18 19" fill="none" xmlns="http://www.w3.org/2000/svg">
<path d="M11.685 9.5C11.685 10.985 10.485 12.185 9 12.185C7.515 12.185 6.315 10.985 6.315 9.5C6.315 8.015 7.515 6.815 9 6.815C10.485 6.815 11.685 8.015 11.685 9.5Z" stroke="#595959" stroke-width="1.125" stroke-linecap="round" stroke-linejoin="round"/>
<path d="M9 15.7025C11.6475 15.7025 14.115 14.1425 15.8325 11.4425C16.5075 10.385 16.5075 8.60748 15.8325 7.54998C14.115 4.84998 11.6475 3.28998 9 3.28998C6.3525 3.28998 3.885 4.84998 2.1675 7.54998C1.4925 8.60748 1.4925 10.385 2.1675 11.4425C3.885 14.1425 6.3525 15.7025 9 15.7025Z" stroke="#595959" stroke-width="1.125" stroke-linecap="round" stroke-linejoin="round"/>
</svg>
