<svg width="10" height="5" viewBox="0 0 10 5" fill="none" xmlns="http://www.w3.org/2000/svg">
<path d="M1.54639 0.809692H8.45361C8.4807 0.809724 8.49515 0.816962 8.50439 0.823364C8.51605 0.831573 8.52914 0.846161 8.5376 0.866333C8.54606 0.886645 8.54786 0.906368 8.54541 0.921021C8.54344 0.932762 8.53776 0.947903 8.51904 0.966919L5.50049 3.98547C5.2266 4.25936 4.77926 4.25936 4.50537 3.98547L1.48389 0.963989C1.46414 0.944158 1.45946 0.928228 1.45752 0.917114C1.45512 0.903067 1.45631 0.884825 1.46436 0.865356C1.47245 0.845782 1.48416 0.831429 1.49561 0.823364C1.50458 0.817059 1.51901 0.809757 1.54639 0.809692Z" fill="#39444F" stroke="#39444F" stroke-width="1.07692"/>
</svg>
