<svg width="16" height="16" viewBox="0 0 16 16" fill="none" xmlns="http://www.w3.org/2000/svg">
    <path
        d="M7.29424 15.1C6.97424 15.1 6.66091 15.02 6.36758 14.86C5.78091 14.5334 5.42758 13.94 5.42758 13.2734V9.74002C5.42758 9.40669 5.20758 8.90669 5.00091 8.65336L2.50758 6.01336C2.08758 5.59336 1.76758 4.87336 1.76758 4.33336V2.80002C1.76758 1.73336 2.57424 0.900024 3.60091 0.900024H12.4009C13.4142 0.900024 14.2342 1.72002 14.2342 2.73336V4.20002C14.2342 4.90002 13.8142 5.69336 13.4209 6.08669L10.5342 8.64002C10.2542 8.87336 10.0342 9.38669 10.0342 9.80002V12.6667C10.0342 13.26 9.66091 13.9467 9.19424 14.2267L8.27425 14.82C7.97425 15.0067 7.63424 15.1 7.29424 15.1ZM3.60091 1.90002C3.13424 1.90002 2.76758 2.29336 2.76758 2.80002V4.33336C2.76758 4.58002 2.96758 5.06002 3.22091 5.31336L5.76091 7.98669C6.10091 8.40669 6.43424 9.10669 6.43424 9.73336V13.2667C6.43424 13.7 6.73424 13.9134 6.86091 13.98C7.14091 14.1334 7.48091 14.1334 7.74091 13.9734L8.66758 13.38C8.85425 13.2667 9.04091 12.9067 9.04091 12.6667V9.80002C9.04091 9.08669 9.38758 8.30002 9.88758 7.88002L12.7409 5.35336C12.9676 5.12669 13.2409 4.58669 13.2409 4.19336V2.73336C13.2409 2.27336 12.8676 1.90002 12.4076 1.90002H3.60091Z"
        fill="currentColor" />
    <path
        d="M4.00044 7.16664C3.9071 7.16664 3.82044 7.13997 3.73377 7.09331C3.50044 6.94664 3.4271 6.63331 3.57377 6.39997L6.86044 1.13331C7.0071 0.899972 7.31377 0.826639 7.5471 0.973306C7.78044 1.11997 7.85377 1.42664 7.7071 1.65997L4.42044 6.92664C4.3271 7.07997 4.1671 7.16664 4.00044 7.16664Z"
        fill="currentColor" />
</svg>
