<svg width="24" height="24" viewBox="0 0 24 24" fill="none" xmlns="http://www.w3.org/2000/svg">
<mask id="path-1-inside-1_904_33663" fill="white">
<path d="M12.46 22.7501C12.29 22.7501 12.12 22.7501 11.95 22.7401C6.34999 22.4901 1.66999 17.9801 1.27999 12.4801C0.939994 7.76011 3.66999 3.35011 8.06999 1.50011C9.31999 0.980114 9.97999 1.38011 10.26 1.67011C10.54 1.95011 10.93 2.60011 10.41 3.79011C9.94999 4.85011 9.71999 5.98011 9.72999 7.14011C9.74999 11.5701 13.43 15.3301 17.92 15.5101C18.57 15.5401 19.21 15.4901 19.83 15.3801C21.15 15.1401 21.7 15.6701 21.91 16.0101C22.12 16.3501 22.36 17.0801 21.56 18.1601C19.44 21.0601 16.07 22.7501 12.46 22.7501ZM2.76999 12.3701C3.10999 17.1301 7.16999 21.0301 12.01 21.2401C15.3 21.4001 18.42 19.9001 20.34 17.2801C20.49 17.0701 20.56 16.9201 20.59 16.8401C20.5 16.8301 20.34 16.8201 20.09 16.8701C19.36 17.0001 18.6 17.0501 17.85 17.0201C12.57 16.8101 8.24999 12.3801 8.21999 7.16011C8.21999 5.78011 8.48999 4.45011 9.03999 3.20011C9.13999 2.98011 9.15999 2.83011 9.16999 2.75011C9.07999 2.75011 8.91999 2.77011 8.65999 2.88011C4.84999 4.48011 2.48999 8.30011 2.76999 12.3701Z"/>
</mask>
<path d="M12.46 22.7501C12.29 22.7501 12.12 22.7501 11.95 22.7401C6.34999 22.4901 1.66999 17.9801 1.27999 12.4801C0.939994 7.76011 3.66999 3.35011 8.06999 1.50011C9.31999 0.980114 9.97999 1.38011 10.26 1.67011C10.54 1.95011 10.93 2.60011 10.41 3.79011C9.94999 4.85011 9.71999 5.98011 9.72999 7.14011C9.74999 11.5701 13.43 15.3301 17.92 15.5101C18.57 15.5401 19.21 15.4901 19.83 15.3801C21.15 15.1401 21.7 15.6701 21.91 16.0101C22.12 16.3501 22.36 17.0801 21.56 18.1601C19.44 21.0601 16.07 22.7501 12.46 22.7501ZM2.76999 12.3701C3.10999 17.1301 7.16999 21.0301 12.01 21.2401C15.3 21.4001 18.42 19.9001 20.34 17.2801C20.49 17.0701 20.56 16.9201 20.59 16.8401C20.5 16.8301 20.34 16.8201 20.09 16.8701C19.36 17.0001 18.6 17.0501 17.85 17.0201C12.57 16.8101 8.24999 12.3801 8.21999 7.16011C8.21999 5.78011 8.48999 4.45011 9.03999 3.20011C9.13999 2.98011 9.15999 2.83011 9.16999 2.75011C9.07999 2.75011 8.91999 2.77011 8.65999 2.88011C4.84999 4.48011 2.48999 8.30011 2.76999 12.3701Z" fill="#B2B6BA"/>
<path d="M11.95 22.7401L12.0439 21.1429L12.0327 21.1422L12.0214 21.1417L11.95 22.7401ZM1.27999 12.4801L2.87599 12.3669L2.87586 12.3652L1.27999 12.4801ZM8.06999 1.50011L7.45544 0.0228313L7.44985 0.0251825L8.06999 1.50011ZM10.26 1.67011L9.10895 2.78147L9.1187 2.79156L9.12862 2.80149L10.26 1.67011ZM10.41 3.79011L8.94385 3.14945L8.94224 3.15317L10.41 3.79011ZM9.72999 7.14011L11.33 7.13289L11.3299 7.12632L9.72999 7.14011ZM17.92 15.5101L17.9938 13.9118L17.9841 13.9114L17.92 15.5101ZM19.83 15.3801L20.1095 16.9555L20.1162 16.9543L19.83 15.3801ZM21.56 18.1601L20.2743 17.2077L20.2683 17.2159L21.56 18.1601ZM2.76999 12.3701L1.17376 12.4799L1.17406 12.4841L2.76999 12.3701ZM12.01 21.2401L12.0877 19.642L12.0794 19.6416L12.01 21.2401ZM20.34 17.2801L21.6306 18.2259L21.6363 18.218L21.642 18.2101L20.34 17.2801ZM20.59 16.8401L22.0881 17.4019L22.81 15.4769L20.7667 15.2499L20.59 16.8401ZM20.09 16.8701L20.3705 18.4453L20.3872 18.4424L20.4038 18.439L20.09 16.8701ZM17.85 17.0201L17.9139 15.4214L17.9136 15.4214L17.85 17.0201ZM8.21999 7.16011H6.61997L6.62002 7.16931L8.21999 7.16011ZM9.03999 3.20011L7.58341 2.53803L7.57939 2.54686L7.57549 2.55573L9.03999 3.20011ZM9.16999 2.75011L10.7576 2.94857L10.9824 1.15011H9.16999V2.75011ZM8.65999 2.88011L9.2795 4.35532L9.28342 4.35366L8.65999 2.88011ZM12.46 22.7501V21.1501C12.2822 21.1501 12.1592 21.1497 12.0439 21.1429L11.95 22.7401L11.856 24.3374C12.0808 24.3506 12.2978 24.3501 12.46 24.3501V22.7501ZM11.95 22.7401L12.0214 21.1417C7.21526 20.9271 3.20728 17.0391 2.87599 12.3669L1.27999 12.4801L-0.315999 12.5933C0.132704 18.9211 5.48472 24.0531 11.8786 24.3385L11.95 22.7401ZM1.27999 12.4801L2.87586 12.3652C2.58582 8.33875 4.91405 4.56272 8.69014 2.97505L8.06999 1.50011L7.44985 0.0251825C2.42594 2.13751 -0.705833 7.18148 -0.315871 12.5951L1.27999 12.4801ZM8.06999 1.50011L8.68454 2.97739C8.88424 2.89431 9.02183 2.86404 9.10403 2.85348C9.14505 2.84821 9.17338 2.84769 9.19035 2.8482C9.2072 2.84871 9.21492 2.85029 9.21496 2.85029C9.21499 2.8503 9.21009 2.84928 9.20145 2.84598C9.19292 2.84271 9.18282 2.838 9.17183 2.83162C9.14998 2.81893 9.12901 2.80224 9.10895 2.78147L10.26 1.67011L11.411 0.558763C11.0871 0.22327 10.5726 -0.141547 9.84253 -0.287565C9.1135 -0.43337 8.31057 -0.332888 7.45545 0.0228419L8.06999 1.50011ZM10.26 1.67011L9.12862 2.80149C9.09187 2.76473 9.06992 2.72254 9.06456 2.69501C9.05856 2.66423 9.09971 2.79279 8.94386 3.14945L10.41 3.79011L11.8761 4.43078C12.2403 3.59744 12.3464 2.806 12.2054 2.08271C12.0651 1.36269 11.7081 0.8555 11.3914 0.538744L10.26 1.67011ZM10.41 3.79011L8.94224 3.15317C8.39315 4.41847 8.11812 5.77016 8.13005 7.15391L9.72999 7.14011L11.3299 7.12632C11.3219 6.19007 11.5068 5.28176 11.8777 4.42706L10.41 3.79011ZM9.72999 7.14011L8.13001 7.14734C8.15397 12.4537 12.5312 16.8954 17.8559 17.1088L17.92 15.5101L17.9841 13.9114C14.3288 13.7649 11.346 10.6866 11.33 7.13289L9.72999 7.14011ZM17.92 15.5101L17.8462 17.1084C18.6265 17.1444 19.3854 17.084 20.1095 16.9555L19.83 15.3801L19.5505 13.8047C19.0346 13.8962 18.5135 13.9358 17.9938 13.9118L17.92 15.5101ZM19.83 15.3801L20.1162 16.9543C20.5297 16.8791 20.662 16.951 20.6406 16.9415C20.6182 16.9317 20.5791 16.9002 20.5487 16.8509L21.91 16.0101L23.2713 15.1693C23.0308 14.7801 22.6117 14.3135 21.9319 14.0137C21.253 13.7142 20.4503 13.6411 19.5438 13.8059L19.83 15.3801ZM21.91 16.0101L20.5487 16.8509C20.525 16.8125 20.514 16.7698 20.5149 16.7465C20.5158 16.7229 20.5231 16.8719 20.2743 17.2078L21.56 18.1601L22.8457 19.1125C23.3969 18.3683 23.6842 17.6123 23.7126 16.8687C23.741 16.1254 23.505 15.5477 23.2713 15.1693L21.91 16.0101ZM21.56 18.1601L20.2683 17.2159C18.4542 19.6975 15.5673 21.1501 12.46 21.1501V22.7501V24.3501C16.5727 24.3501 20.4258 22.4227 22.8517 19.1044L21.56 18.1601ZM2.76999 12.3701L1.17406 12.4841C1.57326 18.0729 6.30678 22.5942 11.9406 22.8386L12.01 21.2401L12.0794 19.6416C8.03321 19.4661 4.64673 16.1873 4.36593 12.2561L2.76999 12.3701ZM12.01 21.2401L11.9323 22.8382C15.7591 23.0243 19.393 21.2792 21.6306 18.2259L20.34 17.2801L19.0494 16.3344C17.447 18.5211 14.8408 19.7759 12.0877 19.642L12.01 21.2401ZM20.34 17.2801L21.642 18.2101C21.8635 17.8999 22.0036 17.6273 22.0881 17.4019L20.59 16.8401L19.0919 16.2783C19.1164 16.213 19.1164 16.2403 19.038 16.3501L20.34 17.2801ZM20.59 16.8401L20.7667 15.2499C20.5423 15.225 20.2141 15.2136 19.7762 15.3012L20.09 16.8701L20.4038 18.439C20.4239 18.435 20.4372 18.4332 20.444 18.4324C20.4507 18.4317 20.452 18.4318 20.4485 18.4319C20.4447 18.432 20.4384 18.432 20.4299 18.4316C20.4259 18.4314 20.4222 18.4311 20.4189 18.4309C20.4156 18.4306 20.4135 18.4304 20.4133 18.4303L20.59 16.8401ZM20.09 16.8701L19.8095 15.2949C19.1964 15.4041 18.552 15.4469 17.9139 15.4214L17.85 17.0201L17.786 18.6188C18.648 18.6533 19.5236 18.5962 20.3705 18.4453L20.09 16.8701ZM17.85 17.0201L17.9136 15.4214C13.4736 15.2448 9.84497 11.501 9.81997 7.15092L8.21999 7.16011L6.62002 7.16931C6.65502 13.2593 11.6664 18.3754 17.7864 18.6189L17.85 17.0201ZM8.21999 7.16011H9.81999C9.81999 5.99307 10.0474 4.88342 10.5045 3.8445L9.03999 3.20011L7.57549 2.55573C6.93262 4.01681 6.61999 5.56716 6.61999 7.16011H8.21999ZM9.03999 3.20011L10.4966 3.8622C10.6879 3.44123 10.7366 3.11697 10.7576 2.94857L9.16999 2.75011L7.58235 2.55166C7.58047 2.56669 7.58074 2.5635 7.58176 2.55742C7.58295 2.55039 7.58457 2.54234 7.58652 2.53456C7.58841 2.52699 7.58981 2.52283 7.58996 2.52241C7.59006 2.52211 7.58829 2.52728 7.58341 2.53803L9.03999 3.20011ZM9.16999 2.75011V1.15011C8.82418 1.15011 8.45147 1.23103 8.03657 1.40657L8.65999 2.88011L9.28342 4.35366C9.33757 4.33075 9.35078 4.33018 9.3283 4.33521C9.30302 4.34087 9.24829 4.35011 9.16999 4.35011V2.75011ZM8.65999 2.88011L8.04049 1.40492C3.60573 3.26728 0.846319 7.72023 1.17377 12.4799L2.76999 12.3701L4.36622 12.2603C4.13367 8.88 6.09426 5.69295 9.2795 4.35531L8.65999 2.88011Z" fill="#B2B6BA" mask="url(#path-1-inside-1_904_33663)"/>
</svg>
