<svg
  width="36"
  height="33"
  viewBox="0 0 36 33"
  fill="none"
  xmlns="http://www.w3.org/2000/svg"
>
  <path
    d="M34.7049 6.38562C33.9688 7.13327 33.1406 7.8004 32.3355 8.49054C30.5641 10.0203 28.7928 11.5616 27.0099 13.0799C25.5836 14.2877 24.6289 14.2302 23.3062 12.8729C21.3738 10.906 19.4529 8.92762 17.5205 6.96074C16.1518 5.55746 15.6802 5.55746 14.1964 6.89172C11.0563 9.73278 7.91616 12.5623 4.78754 15.4034C4.10891 16.0015 3.39577 16.4616 2.44108 16.2431C0.531701 15.806 -0.169937 13.632 1.12982 12.1368C1.61291 11.5846 2.17653 11.1016 2.72863 10.607C5.85725 7.76589 8.99737 4.93634 12.1375 2.09528C12.5056 1.76171 12.8851 1.42815 13.2762 1.10608C15.1396 -0.423719 16.9914 -0.37771 18.6823 1.31312C20.5341 3.16499 22.3515 5.06286 24.1804 6.93773C24.5024 7.25979 24.744 7.66237 25.2616 7.90392C26.6533 6.92623 27.8956 5.69549 29.2299 4.57977C29.9775 3.97015 30.6791 3.30301 31.4498 2.7164C32.5425 1.87673 33.9343 1.99176 34.8085 2.94644C35.7516 3.98165 35.7516 5.33892 34.7049 6.38562Z"
    fill="white"
  />
  <path
    d="M34.3256 23.4205C32.5773 24.9848 30.7829 26.4916 29.0001 28.0099C28.31 28.608 27.6313 29.2291 26.9067 29.7927C25.4114 30.9545 24.6292 30.9085 23.318 29.5627C21.4546 27.6533 19.6258 25.7209 17.7739 23.8001C17.5899 23.6045 17.3943 23.3975 17.1988 23.2134C16.2901 22.3738 15.6 22.3393 14.6683 23.1559C12.6094 24.9848 10.562 26.8367 8.51457 28.6885C7.19181 29.8848 5.88055 31.1155 4.52328 32.2887C3.31554 33.3354 1.94677 33.2089 1.01509 32.0587C0.244438 31.0925 0.359461 29.5167 1.33715 28.562C2.29184 27.6188 3.28104 26.7331 4.27023 25.836C7.20331 23.1904 10.1479 20.5564 13.0925 17.9109C15.0479 16.1625 17.0607 16.2316 18.9241 18.1409C20.7185 19.9813 22.4898 21.8447 24.2727 23.6965C24.5602 23.9956 24.8018 24.3407 25.3539 24.5592C27.0447 23.0984 28.724 21.6606 30.3919 20.2228C30.5989 20.0503 30.7945 19.8548 31.013 19.6822C32.5198 18.4285 33.762 18.44 34.8663 19.7052C35.9015 20.89 35.7404 22.1667 34.3256 23.4205Z"
    fill="white"
  />
  <path
    d="M34.4865 14.9777C32.9452 16.358 31.3578 17.6807 29.782 19.0265C28.8043 19.8662 27.8381 20.7058 26.8375 21.5225C25.5952 22.5347 24.5715 22.4887 23.4443 21.3385C21.4314 19.3141 19.4645 17.2437 17.4631 15.2193C16.1633 13.8965 15.7263 13.862 14.3575 15.0927C11.4819 17.6692 8.62936 20.2802 5.7653 22.8683C5.2822 23.3053 4.81061 23.7424 4.29301 24.1105C3.2463 24.8466 2.09608 24.7891 1.24491 24.007C0.451251 23.2708 0.244211 21.7986 0.853831 20.8209C1.08388 20.4413 1.41744 20.0962 1.75101 19.7972C5.51225 16.404 9.308 13.0683 13.0232 9.62915C14.8406 7.93832 17.2101 7.94982 18.9699 9.8592C20.9598 12.0216 23.0417 14.1035 25.2156 16.3465C27.2745 14.5751 29.2299 12.9073 31.1738 11.228C31.9099 10.5953 32.7151 10.2273 33.7043 10.5838C35.6942 11.2855 36.1198 13.5399 34.4865 14.9777Z"
    fill="white"
  />
</svg>
