<svg width="24" height="24" viewBox="0 0 24 24" fill="none" xmlns="http://www.w3.org/2000/svg">
<mask id="path-1-inside-1_1611_1476" fill="white">
<path d="M12 19.25C8 19.25 4.75 16 4.75 12C4.75 8 8 4.75 12 4.75C16 4.75 19.25 8 19.25 12C19.25 16 16 19.25 12 19.25ZM12 6.25C8.83 6.25 6.25 8.83 6.25 12C6.25 15.17 8.83 17.75 12 17.75C15.17 17.75 17.75 15.17 17.75 12C17.75 8.83 15.17 6.25 12 6.25Z"/>
</mask>
<path d="M12 19.25C8 19.25 4.75 16 4.75 12C4.75 8 8 4.75 12 4.75C16 4.75 19.25 8 19.25 12C19.25 16 16 19.25 12 19.25ZM12 6.25C8.83 6.25 6.25 8.83 6.25 12C6.25 15.17 8.83 17.75 12 17.75C15.17 17.75 17.75 15.17 17.75 12C17.75 8.83 15.17 6.25 12 6.25Z" fill="#B2B6BA"/>
<path d="M12 19.25V17.65C8.88366 17.65 6.35 15.1163 6.35 12H4.75H3.15C3.15 16.8837 7.11634 20.85 12 20.85V19.25ZM4.75 12H6.35C6.35 8.88366 8.88366 6.35 12 6.35V4.75V3.15C7.11634 3.15 3.15 7.11634 3.15 12H4.75ZM12 4.75V6.35C15.1163 6.35 17.65 8.88366 17.65 12H19.25H20.85C20.85 7.11634 16.8837 3.15 12 3.15V4.75ZM19.25 12H17.65C17.65 15.1163 15.1163 17.65 12 17.65V19.25V20.85C16.8837 20.85 20.85 16.8837 20.85 12H19.25ZM12 6.25V4.65C7.94634 4.65 4.65 7.94634 4.65 12H6.25H7.85C7.85 9.71366 9.71366 7.85 12 7.85V6.25ZM6.25 12H4.65C4.65 16.0537 7.94634 19.35 12 19.35V17.75V16.15C9.71366 16.15 7.85 14.2863 7.85 12H6.25ZM12 17.75V19.35C16.0537 19.35 19.35 16.0537 19.35 12H17.75H16.15C16.15 14.2863 14.2863 16.15 12 16.15V17.75ZM17.75 12H19.35C19.35 7.94634 16.0537 4.65 12 4.65V6.25V7.85C14.2863 7.85 16.15 9.71366 16.15 12H17.75Z" fill="#B2B6BA" mask="url(#path-1-inside-1_1611_1476)"/>
<path d="M12 21.7197C12.1081 21.7197 12.2002 21.8118 12.2002 21.9199C12.2002 21.9771 12.1754 22.0434 12.126 22.0957C12.0779 22.1465 12.0306 22.1602 12 22.1602C11.9251 22.1602 11.8725 22.1325 11.8428 22.1045C11.8162 22.0792 11.7998 22.0473 11.7998 22V21.9199C11.7998 21.8118 11.8919 21.7197 12 21.7197ZM4.8457 18.876C4.92328 18.7984 5.04644 18.7984 5.12402 18.876C5.2016 18.9536 5.2016 19.0767 5.12402 19.1543L4.99414 19.2842C4.97847 19.2998 4.95751 19.3147 4.93164 19.3252C4.90536 19.3359 4.87987 19.3398 4.86035 19.3398C4.81426 19.3398 4.76285 19.3238 4.70898 19.2754C4.63915 19.1975 4.6409 19.0808 4.71582 19.0059L4.8457 18.876ZM18.8652 18.876C18.9428 18.7984 19.067 18.7984 19.1445 18.876L19.2744 19.0059C19.3518 19.0834 19.3518 19.2066 19.2744 19.2842C19.237 19.3216 19.1911 19.3398 19.1396 19.3398C19.1036 19.3398 19.0638 19.3309 19.0225 19.3037L18.9814 19.2695L18.8652 19.1543C18.788 19.0768 18.7881 18.9535 18.8652 18.876ZM2 11.7998C2.05719 11.7998 2.1235 11.8246 2.17578 11.874C2.22654 11.9221 2.24023 11.9694 2.24023 12C2.24023 12.0749 2.21263 12.1275 2.18457 12.1572C2.15932 12.1838 2.12738 12.2002 2.08008 12.2002H2C1.89183 12.2002 1.7998 12.1082 1.7998 12C1.7998 11.8918 1.89183 11.7998 2 11.7998ZM21.9199 11.7998C21.9771 11.7998 22.0434 11.8246 22.0957 11.874C22.1465 11.9221 22.1602 11.9694 22.1602 12C22.1602 12.0749 22.1325 12.1275 22.1045 12.1572C22.0792 12.1838 22.0473 12.2002 22 12.2002H21.9199C21.8118 12.2002 21.7197 12.1081 21.7197 12C21.7197 11.8919 21.8118 11.7998 21.9199 11.7998ZM4.71582 4.71582C4.79339 4.63825 4.91656 4.63826 4.99414 4.71582L5.12402 4.8457C5.2016 4.92328 5.2016 5.04644 5.12402 5.12402L5.11719 5.13184L5.11035 5.13867C5.07991 5.17072 5.03348 5.19036 4.99023 5.19043C4.94451 5.19043 4.89326 5.17446 4.83984 5.12695L4.73633 5.01562L4.72656 5.00488L4.71582 4.99414L4.69043 4.96289C4.63963 4.88624 4.64798 4.78366 4.71582 4.71582ZM18.9961 4.72559C19.0737 4.64826 19.1969 4.64809 19.2744 4.72559C19.3519 4.80308 19.3517 4.92631 19.2744 5.00391L19.1445 5.13477C19.1071 5.1721 19.0612 5.19043 19.0098 5.19043C18.9636 5.19038 18.9114 5.1747 18.8574 5.12598C18.788 5.04816 18.7906 4.93027 18.8652 4.85547L18.9961 4.72559ZM12 1.7998C12.1082 1.7998 12.2002 1.89183 12.2002 2C12.2002 2.05719 12.1754 2.1235 12.126 2.17578C12.0779 2.22654 12.0306 2.24023 12 2.24023C11.9251 2.24023 11.8725 2.21263 11.8428 2.18457C11.8162 2.15932 11.7998 2.12738 11.7998 2.08008V2C11.7998 1.89183 11.8918 1.7998 12 1.7998Z" fill="#B2B6BA" stroke="#B2B6BA" stroke-width="1.6"/>
</svg>
