<svg width="24" height="25" viewBox="0 0 24 25" fill="none" xmlns="http://www.w3.org/2000/svg">
<path opacity="0.4" d="M12 22.5C17.5228 22.5 22 18.0228 22 12.5C22 6.97715 17.5228 2.5 12 2.5C6.47715 2.5 2 6.97715 2 12.5C2 18.0228 6.47715 22.5 12 22.5Z" fill="#7396AA"/>
<path d="M10.5799 16.0801C10.3799 16.0801 10.1899 16.0001 10.0499 15.8601L7.21994 13.0301C6.92994 12.7401 6.92994 12.2601 7.21994 11.9701C7.50994 11.6801 7.98994 11.6801 8.27994 11.9701L10.5799 14.2701L15.7199 9.1301C16.0099 8.8401 16.4899 8.8401 16.7799 9.1301C17.0699 9.4201 17.0699 9.9001 16.7799 10.1901L11.1099 15.8601C10.9699 16.0001 10.7799 16.0801 10.5799 16.0801Z" fill="#7396AA"/>
</svg>
