<svg width="24" height="25" viewBox="0 0 24 25" fill="none" xmlns="http://www.w3.org/2000/svg">
<path opacity="0.4" d="M18 19.36H17.24C16.44 19.36 15.68 19.67 15.12 20.23L13.41 21.92C12.63 22.69 11.36 22.69 10.58 21.92L8.87 20.23C8.31 19.67 7.54 19.36 6.75 19.36H6C4.34 19.36 3 18.03 3 16.39V5.47998C3 3.83998 4.34 2.51001 6 2.51001H18C19.66 2.51001 21 3.83998 21 5.47998V16.39C21 18.02 19.66 19.36 18 19.36Z" fill="#FAB473"/>
<path d="M11.9999 10.91C13.2868 10.91 14.33 9.86684 14.33 8.58002C14.33 7.29319 13.2868 6.25 11.9999 6.25C10.7131 6.25 9.66992 7.29319 9.66992 8.58002C9.66992 9.86684 10.7131 10.91 11.9999 10.91Z" fill="#FAB473"/>
<path d="M14.6799 15.5601C15.4899 15.5601 15.9599 14.6601 15.5099 13.9901C14.8299 12.9801 13.5099 12.3 11.9999 12.3C10.4899 12.3 9.16991 12.9801 8.48991 13.9901C8.03991 14.6601 8.50993 15.5601 9.31993 15.5601H14.6799Z" fill="#FAB473"/>
</svg>
