<svg width="24" height="25" viewBox="0 0 24 25" fill="none" xmlns="http://www.w3.org/2000/svg">
<path opacity="0.4" d="M21.08 9.08003V15.92C21.08 17.04 20.4799 18.08 19.5099 18.65L13.5699 22.08C12.5999 22.64 11.3999 22.64 10.4199 22.08L4.47992 18.65C3.50992 18.09 2.90991 17.05 2.90991 15.92V9.08003C2.90991 7.96003 3.50992 6.91999 4.47992 6.34999L10.4199 2.92C11.3899 2.36 12.5899 2.36 13.5699 2.92L19.5099 6.34999C20.4799 6.91999 21.08 7.95003 21.08 9.08003Z" fill="#E66482"/>
<path d="M12 14.25C11.59 14.25 11.25 13.91 11.25 13.5V8.25C11.25 7.84 11.59 7.5 12 7.5C12.41 7.5 12.75 7.84 12.75 8.25V13.5C12.75 13.91 12.41 14.25 12 14.25Z" fill="#E66482"/>
<path d="M12 17.7499C11.87 17.7499 11.74 17.7198 11.62 17.6698C11.49 17.6198 11.39 17.5499 11.29 17.4599C11.2 17.3599 11.13 17.2499 11.07 17.1299C11.02 17.0099 11 16.8799 11 16.7499C11 16.4899 11.1 16.2298 11.29 16.0398C11.39 15.9498 11.49 15.8799 11.62 15.8299C11.99 15.6699 12.43 15.7598 12.71 16.0398C12.8 16.1398 12.87 16.2399 12.92 16.3699C12.97 16.4899 13 16.6199 13 16.7499C13 16.8799 12.97 17.0099 12.92 17.1299C12.87 17.2499 12.8 17.3599 12.71 17.4599C12.52 17.6499 12.27 17.7499 12 17.7499Z" fill="#E66482"/>
</svg>
